<svg xmlns="http://www.w3.org/2000/svg" width="136.195" height="73.248" viewBox="348.422 261.691 136.195 73.248"><path fill="#FCDA01" d="M384.92 301.94h10.95v33h-10.95z"/><path fill="#E9C11E" d="M384.92 301.94h10.95v8.55h-10.95z"/><path fill="#E9C11E" d="M433.77 304.44h-83.197c-1.2 0-2.15-.95-2.15-2.1v-36.05c0-1.2.95-2.1 2.15-2.1h83.197c.55 0 1.1.2 1.5.65l18.05 18.05c.8.8.8 2.15 0 2.95l-18.05 18.05c-.4.3-.95.55-1.5.55z"/><path fill="#E9C11E" d="M440.57 281.64h13.4v2.8h-13.4z"/><g><linearGradient id="a" gradientUnits="userSpaceOnUse" x1="380.625" y1="71.3" x2="380.625" y2="-9.2" gradientTransform="matrix(.5 0 0 -.5 210.865 297.34)"><stop offset=".005" stop-color="#FDF7CA"/><stop offset="1" stop-color="#FCDA01"/></linearGradient><path fill="url(#a)" d="M433.77 301.94h-83.197c-1.2 0-2.15-.95-2.15-2.1v-36.05c0-1.2.95-2.1 2.15-2.1h83.197c.55 0 1.1.2 1.5.65l18.05 18.05c.8.8.8 2.15 0 2.95l-18.05 18.05c-.4.3-.95.55-1.5.55z"/></g><g opacity=".35" fill="#FFF"><path d="M354.172 278.69c0-2 0-3.1-.1-4.75 1-.25 5-.7 7.4-.7 7.35 0 8.55 3.45 8.55 5.95 0 2.35-1.65 4.1-3.4 5 3.3.9 4.85 3.1 4.85 5.6 0 5.1-4.3 7.75-10.55 7.75-2 0-5.15-.35-6.75-.65v-18.2zm5.35 4.85c1.05-.2 2-.25 3.75-.2.95-.5 1.65-1.6 1.65-3.4 0-2.4-1.6-3.55-3.55-3.55-.6 0-1.5.1-1.8.15v7h-.05zm0 10.65c.45.1 1.2.15 1.7.15 2.6 0 4.35-1.5 4.35-4.2 0-2.3-1.65-3.65-4.5-3.65-.55 0-1.05 0-1.55.1v7.6zM386.77 293.04c0 1.9-1.6 3.7-2.3 4-.5.25-2.15.6-3.4.6-5.65 0-8.8-2.95-8.8-8.7 0-4.5 3.05-9 8.3-9 5 0 6.9 3.6 6.9 6.7 0 .6-.05 1-.1 1.25-.2.55-1.5 1.15-3.1 1.6-.9.25-5 .3-6.75.25.25 3.1 2.7 4.1 4.95 4.1 1.85 0 3.6-.55 4.2-.85l.1.05zm-9.25-6.25c1 .1 3.7.1 4.65 0 .2 0 .4-.4.4-.8 0-1.7-.7-3.1-2.4-3.1-1.25 0-2.6 1.2-2.65 3.9zM403.52 293.99c0 2.3-1.1 3.65-3.55 3.65-1.55 0-2.65-.7-3.3-2-.95 1.05-2.55 2-4.25 2-2.45 0-4.9-1.9-4.9-4.95 0-3.8 4.2-4.85 7.2-5.5.7-.15 1.5-.3 1.95-.4v-.45c0-1.5-1.05-2.6-2.8-2.6-1.3 0-2.6.6-3.35.95-1.85.55-2.4-1.1-2.35-2.3 1.8-1.25 4.55-2.45 7.15-2.45 3.25 0 6.4 2.05 6.4 6.45 0 1.55-.15 4.05-.15 6.6 0 .4.45.85 1.35.85.2 0 .45 0 .6-.05v.2zm-8.95-.05c.75 0 1.15-.15 1.65-.55.25-.25.35-.65.35-1.35v-2.6c-3.4.35-4.1 1.65-4.1 2.45-.05 1.3.9 2.05 2.1 2.05zM418.17 293.19c-.05 1.2-.6 2.7-1.4 3.4-1.15.7-2.75 1.05-4.35 1.05-5.45 0-8.85-3.35-8.85-8.4 0-5.55 4.15-9.3 9.55-9.3 2.6 0 4.45.75 5.15 1.5.05 1.05-.5 2.65-2 2.65-.8-.3-2-.55-2.9-.55-2.45 0-4.5 1.6-4.5 4.95 0 3.7 2.45 5.3 5.1 5.3 1.75 0 3.1-.3 4.1-.7l.1.1zM424.42 281.94c1.55-1.2 3.1-2.05 5.1-2.05 3.3 0 5.45 2.4 5.45 6.65v5c0 1.75.05 4.05.1 5.5-.85.1-2.6.3-4.5.3-.65 0-.85-.25-.85-.85v-9.75c0-1.65-1-2.95-2.6-2.95-.9 0-1.8.3-2.7.95v11.3c0 .7-.1 1-.9 1.1-1.5.2-2.8.25-4.5.25.1-2.3.1-4.65.1-6.85v-14.35c0-2.3-.1-3.2-.15-4 .7-.3 3.75-.8 4.65-.8.6 0 .75.2.75 2.5v8.05h.05z"/><g><path d="M380.62 273.69c0 2.25-1.45 3.7-3.65 3.7-1.9 0-3.45-1.15-3.45-3.55 0-2.15 1.55-3.65 3.65-3.65 2.25 0 3.45 1.6 3.45 3.5zm-4.898-.05c0 1.7.65 2.5 1.4 2.5.95 0 1.2-1.05 1.2-2.25 0-1.25-.4-2.4-1.4-2.4-.85 0-1.2 1-1.2 2.15zM385.62 273.04c0-.75-.45-1.25-1.05-1.25-.5 0-.8.2-1.15.4v4.65c0 .25-.05.35-.35.4-.6.1-1.15.1-1.85.1.05-.95.05-1.9.05-2.8v-2.5c0-.4-.05-.65-.3-.8v-.1c.15-.45.75-.9 1.3-.9.65 0 .95.5 1.05 1 .65-.55 1.35-1 2.1-1 2.05 0 2.35 1.75 2.35 2.85v1.85c0 .75 0 1.7.05 2.3-.35.05-1.1.1-1.85.1-.25 0-.35-.1-.35-.35v-3.95zM395.67 275.69c.05.4 0 .95-.3 1.2-.4.35-1.05.55-1.8.55-1.65 0-2.15-1.05-2.15-2.1v-3.55c-.6 0-.95-.35-.95-.5.25-.5 1.65-1.75 1.95-1.95.3-.25.6-.45 1.3-.5-.05.45-.1 1.1-.1 1.6h2.2c-.2 1.2-.55 1.25-.85 1.3-.25.05-.95.1-1.4.1-.05 1.1-.05 2.55 0 3.2.1.7.45 1 1 1 .45-.1.9-.3 1.1-.35zM398.17 271.04c.65-.5 1.25-.85 2.1-.85 1.35 0 2.25 1 2.25 2.7v2.05c0 .7 0 1.65.05 2.25-.35.05-1.05.1-1.85.1-.25 0-.35-.1-.35-.35v-4c0-.7-.4-1.2-1.05-1.2-.35 0-.75.1-1.1.4v4.6c0 .3-.05.4-.35.45-.6.1-1.15.1-1.85.1.05-.95.05-1.9.05-2.8v-5.85c0-.95-.05-1.3-.05-1.65.3-.1 1.55-.35 1.9-.35.25 0 .3.1.3 1v3.4h-.05zM408.97 275.54c0 .75-.65 1.5-.95 1.65-.2.1-.9.25-1.4.25-2.3 0-3.6-1.2-3.6-3.55 0-1.85 1.25-3.65 3.4-3.65 2.05 0 2.8 1.45 2.8 2.75 0 .25 0 .4-.05.5-.1.25-.6.45-1.25.65-.35.1-2.05.1-2.75.1.1 1.25 1.1 1.65 2 1.65.8-.05 1.5-.25 1.8-.35zm-3.75-2.55c.4.05 1.5.05 1.9 0 .1 0 .15-.15.15-.35 0-.7-.3-1.25-1-1.25-.5 0-1.05.5-1.05 1.6z"/></g></g><g fill="#28377B"><path d="M354.172 277.69c0-2 0-3.1-.1-4.75 1-.25 5-.7 7.4-.7 7.35 0 8.55 3.45 8.55 5.95 0 2.35-1.65 4.1-3.4 5 3.3.9 4.85 3.1 4.85 5.6 0 5.1-4.3 7.75-10.55 7.75-2 0-5.15-.35-6.75-.65v-18.2zm5.35 4.85c1.05-.2 2-.25 3.75-.2.95-.5 1.65-1.6 1.65-3.4 0-2.4-1.6-3.55-3.55-3.55-.6 0-1.5.1-1.8.15v7h-.05zm0 10.65c.45.1 1.2.15 1.7.15 2.6 0 4.35-1.5 4.35-4.2 0-2.3-1.65-3.65-4.5-3.65-.55 0-1.05 0-1.55.1v7.6zM386.77 292.04c0 1.9-1.6 3.7-2.3 4-.5.25-2.15.6-3.4.6-5.65 0-8.8-2.95-8.8-8.7 0-4.5 3.05-9 8.3-9 5 0 6.9 3.6 6.9 6.7 0 .6-.05 1-.1 1.25-.2.55-1.5 1.15-3.1 1.6-.9.25-5 .3-6.75.25.25 3.1 2.7 4.1 4.95 4.1 1.85 0 3.6-.55 4.2-.85l.1.05zm-9.25-6.25c1 .1 3.7.1 4.65 0 .2 0 .4-.4.4-.8 0-1.7-.7-3.1-2.4-3.1-1.25 0-2.6 1.2-2.65 3.9zM403.52 292.99c0 2.3-1.1 3.65-3.55 3.65-1.55 0-2.65-.7-3.3-2-.95 1.05-2.55 2-4.25 2-2.45 0-4.9-1.9-4.9-4.95 0-3.8 4.2-4.85 7.2-5.5.7-.15 1.5-.3 1.95-.4v-.45c0-1.5-1.05-2.6-2.8-2.6-1.3 0-2.6.6-3.35.95-1.85.55-2.4-1.1-2.35-2.3 1.8-1.25 4.55-2.45 7.15-2.45 3.25 0 6.4 2.05 6.4 6.45 0 1.55-.15 4.05-.15 6.6 0 .4.45.85 1.35.85.2 0 .45 0 .6-.05v.2zm-8.95-.05c.75 0 1.15-.15 1.65-.55.25-.25.35-.65.35-1.35v-2.6c-3.4.35-4.1 1.65-4.1 2.45-.05 1.3.9 2.05 2.1 2.05zM418.17 292.19c-.05 1.2-.6 2.7-1.4 3.4-1.15.7-2.75 1.05-4.35 1.05-5.45 0-8.85-3.35-8.85-8.4 0-5.55 4.15-9.3 9.55-9.3 2.6 0 4.45.75 5.15 1.5.05 1.05-.5 2.65-2 2.65-.8-.3-2-.55-2.9-.55-2.45 0-4.5 1.6-4.5 4.95 0 3.7 2.45 5.3 5.1 5.3 1.75 0 3.1-.3 4.1-.7l.1.1zM424.42 280.94c1.55-1.2 3.1-2.05 5.1-2.05 3.3 0 5.45 2.4 5.45 6.65v5c0 1.75.05 4.05.1 5.5-.85.1-2.6.3-4.5.3-.65 0-.85-.25-.85-.85v-9.75c0-1.65-1-2.95-2.6-2.95-.9 0-1.8.3-2.7.95v11.3c0 .7-.1 1-.9 1.1-1.5.2-2.8.25-4.5.25.1-2.3.1-4.65.1-6.85v-14.35c0-2.3-.1-3.2-.15-4 .7-.3 3.75-.8 4.65-.8.6 0 .75.2.75 2.5v8.05h.05z"/><g><path d="M380.62 272.69c0 2.25-1.45 3.7-3.65 3.7-1.9 0-3.45-1.15-3.45-3.55 0-2.15 1.55-3.65 3.65-3.65 2.25 0 3.45 1.6 3.45 3.5zm-4.898-.05c0 1.7.65 2.5 1.4 2.5.95 0 1.2-1.05 1.2-2.25 0-1.25-.4-2.4-1.4-2.4-.85 0-1.2 1-1.2 2.15zM385.62 272.04c0-.75-.45-1.25-1.05-1.25-.5 0-.8.2-1.15.4v4.65c0 .25-.05.35-.35.4-.6.1-1.15.1-1.85.1.05-.95.05-1.9.05-2.8v-2.5c0-.4-.05-.65-.3-.8v-.1c.15-.45.75-.9 1.3-.9.65 0 .95.5 1.05 1 .65-.55 1.35-1 2.1-1 2.05 0 2.35 1.75 2.35 2.85v1.85c0 .75 0 1.7.05 2.3-.35.05-1.1.1-1.85.1-.25 0-.35-.1-.35-.35v-3.95zM395.67 274.69c.05.4 0 .95-.3 1.2-.4.35-1.05.55-1.8.55-1.65 0-2.15-1.05-2.15-2.1v-3.55c-.6 0-.95-.35-.95-.5.25-.5 1.65-1.75 1.95-1.95.3-.25.6-.45 1.3-.5-.05.45-.1 1.1-.1 1.6h2.2c-.2 1.2-.55 1.25-.85 1.3-.25.05-.95.1-1.4.1-.05 1.1-.05 2.55 0 3.2.1.7.45 1 1 1 .45-.1.9-.3 1.1-.35zM398.17 270.04c.65-.5 1.25-.85 2.1-.85 1.35 0 2.25 1 2.25 2.7v2.05c0 .7 0 1.65.05 2.25-.35.05-1.05.1-1.85.1-.25 0-.35-.1-.35-.35v-4c0-.7-.4-1.2-1.05-1.2-.35 0-.75.1-1.1.4v4.6c0 .3-.05.4-.35.45-.6.1-1.15.1-1.85.1.05-.95.05-1.9.05-2.8v-5.85c0-.95-.05-1.3-.05-1.65.3-.1 1.55-.35 1.9-.35.25 0 .3.1.3 1v3.4h-.05zM408.97 274.54c0 .75-.65 1.5-.95 1.65-.2.1-.9.25-1.4.25-2.3 0-3.6-1.2-3.6-3.55 0-1.85 1.25-3.65 3.4-3.65 2.05 0 2.8 1.45 2.8 2.75 0 .25 0 .4-.05.5-.1.25-.6.45-1.25.65-.35.1-2.05.1-2.75.1.1 1.25 1.1 1.65 2 1.65.8-.05 1.5-.25 1.8-.35zm-3.75-2.55c.4.05 1.5.05 1.9 0 .1 0 .15-.15.15-.35 0-.7-.3-1.25-1-1.25-.5 0-1.05.5-1.05 1.6z"/></g></g><g fill="#28377B"><path d="M449.97 294.69c0 .85-.55 1.35-1.35 1.35-.6 0-1.25-.4-1.25-1.3 0-.75.45-1.4 1.35-1.4.8 0 1.25.6 1.25 1.35zM456.87 294.14c0 .55-.25 1.15-.6 1.5-.5.3-1.2.45-1.9.45-2.4 0-3.85-1.45-3.85-3.65 0-2.4 1.8-4.05 4.15-4.05 1.1 0 1.95.35 2.25.65 0 .45-.2 1.15-.85 1.15-.35-.15-.85-.25-1.25-.25-1.05 0-1.95.7-1.95 2.15 0 1.6 1.05 2.3 2.2 2.3.75 0 1.35-.15 1.8-.25zM464.72 292.09c0 2.4-1.55 3.95-3.9 3.95-2 0-3.7-1.25-3.7-3.8 0-2.3 1.65-3.9 3.85-3.9 2.45.05 3.75 1.75 3.75 3.75zm-5.2-.05c0 1.85.7 2.65 1.5 2.65 1 0 1.3-1.1 1.3-2.4 0-1.35-.4-2.55-1.5-2.55-.95 0-1.3 1.05-1.3 2.3zM467.918 294.69c0 .85-.55 1.35-1.35 1.35-.6 0-1.25-.4-1.25-1.3 0-.75.45-1.4 1.35-1.4.8 0 1.25.6 1.25 1.35zM469.018 290.49c0-1-.05-1.5-.05-1.85.4-.1 1.5-.2 2.05-.2.25 0 .35.1.35 1.05v3.5c0 1.05.7 1.3 1.2 1.3.45 0 .75-.15 1-.35v-4.7c0-.5.05-.6.4-.7.85-.1 1.3-.1 1.95-.1 0 .35-.05 1.55-.05 3v2.45c0 .6.2.8.65.85v.1c-.05.6-.65 1.2-1.1 1.2-1 0-1.35-.4-1.55-1-.4.35-.85.65-1.2.8-.3.15-.65.25-1.05.25-1.8 0-2.55-1.2-2.55-2.8v-2.8h-.05zM479.718 292.04c.6-.75 2.6-3.2 2.9-3.7.3 0 .9.05 1.3.15.45.1.5.35.2.8-.7.9-1.35 1.7-2.1 2.5.4.7 1.8 2.9 2.6 3.9v.05c-.35.15-1.1.25-1.65.25-.6 0-.9-.15-1.35-.8-.55-.8-1.3-1.8-1.85-2.9v3.2c0 .35-.15.4-.55.45-.5.05-.8.1-1.8.05.05-.7.05-1.65.05-3.05v-6.15c0-1-.05-1.5-.05-1.85.45-.15 1.6-.25 2.05-.25.25 0 .35.1.35 1.1v6.25h-.1z"/></g></svg>